<svg width="20" height="20" viewBox="0 0 20 20" fill="none" xmlns="http://www.w3.org/2000/svg">
<path d="M18.7656 1.2344L8.7539 11.2461M1.28249 7.5912L18.47 1.08616C18.532 1.06244 18.5995 1.05719 18.6645 1.07103C18.7294 1.08487 18.7889 1.11722 18.8359 1.16416C18.8828 1.2111 18.9151 1.27063 18.929 1.33555C18.9428 1.40048 18.9376 1.46802 18.9139 1.53003L12.4088 18.7175C12.3829 18.7828 12.3377 18.8386 12.2792 18.8774C12.2207 18.9162 12.1517 18.9361 12.0815 18.9345C12.0113 18.9329 11.9433 18.9099 11.8865 18.8685C11.8298 18.8271 11.7872 18.7693 11.7643 18.7029L8.86819 11.5662C8.83443 11.4651 8.77761 11.3732 8.70221 11.2978C8.62682 11.2224 8.53492 11.1656 8.43378 11.1318L1.2971 8.23831C1.22987 8.21594 1.17119 8.17334 1.1291 8.11634C1.08701 8.05934 1.06356 7.99073 1.06196 7.9199C1.06036 7.84906 1.08069 7.77946 1.12017 7.72062C1.15964 7.66178 1.21634 7.61658 1.28249 7.5912V7.5912Z" stroke="black" stroke-width="1.375" stroke-linecap="round" stroke-linejoin="round"/>
</svg>
